<?xml version="1.0" standalone="no"?><!DOCTYPE svg PUBLIC "-//W3C//DTD SVG 1.1//EN" "http://www.w3.org/Graphics/SVG/1.1/DTD/svg11.dtd"><svg t="1552127424410" class="icon" style="" viewBox="0 0 1024 1024" version="1.1" xmlns="http://www.w3.org/2000/svg" p-id="14559" xmlns:xlink="http://www.w3.org/1999/xlink" width="16" height="16"><defs><style type="text/css"></style></defs><path d="M800 800H416a32 32 0 0 1 0-64h352V288H416a32 32 0 1 1 0-64h384a32 32 0 0 1 32 32v512a32 32 0 0 1-32 32z m-256-160a32 32 0 0 1-22.72-9.28l-64-64a32 32 0 0 1 45.12-45.12l41.28 41.28 105.28-105.28a32 32 0 0 1 45.12 45.12l-128 128A32 32 0 0 1 544 640z m-224-96H224a32 32 0 1 1 0-64h96a32 32 0 1 1 0 64z m64 128H288a32 32 0 0 1 0-64h96a32 32 0 0 1 0 64z m0-256H288a32 32 0 1 1 0-64h96a32 32 0 1 1 0 64z" p-id="14560" fill="#1182ea"></path></svg>